# xmcd CD database file
#
# Track frame offsets:
#	150
#	30212
#	52723
#	76201
#	99832
#	131800
#	159825
#	178585
#	203167
#	232813
#	261136
#	290618
#
# Disc length: 4301 seconds
#
# Revision: 0
# Processed by: cddbd v1.5.2PL0 Copyright (c) Steve Scherf et al.
# Submitted via: CDex 1.70beta2
#
DISCID=8910cb0c
DTITLE=Various Artist - Nahom Favorites Volume 18
DYEAR=2008
DGENRE=Ethiopian-Amharic
TTITLE0=Yeabay dar Amora
TTITLE1=Gojam
TTITLE2=Yenie Kifu Aywetashe
TTITLE3=Hobel
TTITLE4=Nishit
TTITLE5=Sugar Daddy
TTITLE6=Aba Tatek
TTITLE7=Ytawej Beyfa
TTITLE8=Ahoho Belulet
TTITLE9=Labejaj
TTITLE10=Washintu
TTITLE11=Anetatreh
EXTD=YEAR: 2008
EXTT0=
EXTT1=
EXTT2=
EXTT3=
EXTT4=
EXTT5=
EXTT6=
EXTT7=
EXTT8=
EXTT9=
EXTT10=
EXTT11=
PLAYORDER=
